<?xml version="1.0" encoding="UTF-8" standalone="no"?>
<svg
   xmlns:dc="http://purl.org/dc/elements/1.1/"
   xmlns:cc="http://creativecommons.org/ns#"
   xmlns:rdf="http://www.w3.org/1999/02/22-rdf-syntax-ns#"
   xmlns:svg="http://www.w3.org/2000/svg"
   xmlns="http://www.w3.org/2000/svg"
   xmlns:xlink="http://www.w3.org/1999/xlink"
   xmlns:sodipodi="http://sodipodi.sourceforge.net/DTD/sodipodi-0.dtd"
   xmlns:inkscape="http://www.inkscape.org/namespaces/inkscape"
   version="1.1"
   width="150"
   height="150"
   viewBox="-305 -516 89.355469 89.389535"
   id="svg2"
   inkscape:version="0.91 r13725"
   sodipodi:docname="Commons-logo.svg">
  <metadata
     id="metadata33">
    <rdf:RDF>
      <cc:Work
         rdf:about="">
        <dc:format>image/svg+xml</dc:format>
        <dc:type
           rdf:resource="http://purl.org/dc/dcmitype/StillImage" />
        <dc:title>Wikimedia Commons Logo</dc:title>
      </cc:Work>
    </rdf:RDF>
  </metadata>
  <sodipodi:namedview
     pagecolor="#ffffff"
     bordercolor="#666666"
     borderopacity="1"
     objecttolerance="10"
     gridtolerance="10"
     guidetolerance="10"
     inkscape:pageopacity="0"
     inkscape:pageshadow="2"
     inkscape:window-width="1104"
     inkscape:window-height="690"
     id="namedview31"
     showgrid="false"
     inkscape:zoom="3.2533333"
     inkscape:cx="62.704918"
     inkscape:cy="75"
     inkscape:window-x="0"
     inkscape:window-y="0"
     inkscape:window-maximized="0"
     inkscape:current-layer="svg2" />
  <title
     id="title4">Wikimedia Commons Logo</title>
  <defs
     id="defs6">
    <clipPath
       id="c">
      <circle
         r="298"
         id="circle9"
         cx="0"
         cy="0" />
    </clipPath>
  </defs>
  <g
     id="g4161"
     transform="matrix(0.10628522,0,0,0.10628522,-260.32227,-459.77329)">
    <circle
       id="circle11"
       r="100"
       cx="0"
       cy="0"
       style="fill:#990000" />
    <g
       id="g13"
       style="fill:#006699">
      <g
         clip-path="url(#c)"
         id="arrow">
        <path
           id="path16"
           d="m -11,180 0,118 22,0 0,-118"
           inkscape:connector-curvature="0" />
        <path
           id="path18"
           d="M -43,185 0,110 43,185"
           inkscape:connector-curvature="0" />
      </g>
      <g
         id="arrows3">
        <use
           id="use21"
           transform="matrix(0.70710678,0.70710678,-0.70710678,0.70710678,0,0)"
           xlink:href="#arrow"
           x="0"
           y="0"
           width="100%"
           height="100%" />
        <use
           id="use23"
           transform="matrix(0,1,-1,0,0,0)"
           xlink:href="#arrow"
           x="0"
           y="0"
           width="100%"
           height="100%" />
        <use
           id="use25"
           transform="matrix(-0.70710678,0.70710678,-0.70710678,-0.70710678,0,0)"
           xlink:href="#arrow"
           x="0"
           y="0"
           width="100%"
           height="100%" />
      </g>
      <use
         id="use27"
         transform="scale(-1,1)"
         xlink:href="#arrows3"
         x="0"
         y="0"
         width="100%"
         height="100%" />
      <path
         d="M 0,-256 A 256,256 0 1 0 256,0 c 0,-100 -101,-150 -6,-275"
         transform="matrix(0.70710678,-0.70710678,0.70710678,0.70710678,0,0)"
         id="blue_path"
         inkscape:connector-curvature="0"
         style="fill:none;stroke:#006699;stroke-width:84" />
      <path
         d="m -23,-515 c 0,0 -36,135 -80,185 -44,50 116,-62 170,-5 54,57 -90,-180 -90,-180 z"
         id="arrow_top"
         inkscape:connector-curvature="0" />
    </g>
  </g>
</svg>
