<?xml version="1.0" encoding="UTF-8" standalone="no"?>
<!-- Created with Inkscape (http://www.inkscape.org/) -->

<svg
   xmlns:osb="http://www.openswatchbook.org/uri/2009/osb"
   xmlns:dc="http://purl.org/dc/elements/1.1/"
   xmlns:cc="http://creativecommons.org/ns#"
   xmlns:rdf="http://www.w3.org/1999/02/22-rdf-syntax-ns#"
   xmlns:svg="http://www.w3.org/2000/svg"
   xmlns="http://www.w3.org/2000/svg"
   xmlns:xlink="http://www.w3.org/1999/xlink"
   xmlns:sodipodi="http://sodipodi.sourceforge.net/DTD/sodipodi-0.dtd"
   xmlns:inkscape="http://www.inkscape.org/namespaces/inkscape"
   width="200"
   height="200"
   id="svg2"
   version="1.1"
   inkscape:version="0.91 r13725"
   sodipodi:docname="osd_simple_200.svg"
   inkscape:export-filename="/Users/lucacorsato/Documents/osd/website/osdfront/assets/img/osd_simple_200.png"
   inkscape:export-xdpi="320"
   inkscape:export-ydpi="320">
  <defs
     id="defs4">
    <linearGradient
       id="linearGradient4444"
       osb:paint="solid">
      <stop
         style="stop-color:#002fa7;stop-opacity:1;"
         offset="0"
         id="stop4446" />
    </linearGradient>
    <linearGradient
       inkscape:collect="always"
       xlink:href="#linearGradient4444"
       id="linearGradient4448"
       x1="1481.6096"
       y1="393.59521"
       x2="3401.6096"
       y2="393.59521"
       gradientUnits="userSpaceOnUse" />
    <linearGradient
       inkscape:collect="always"
       xlink:href="#linearGradient4444"
       id="linearGradient4452"
       gradientUnits="userSpaceOnUse"
       x1="1481.6096"
       y1="393.59521"
       x2="3401.6096"
       y2="393.59521"
       gradientTransform="translate(-1761.6116,2283.4524)" />
  </defs>
  <sodipodi:namedview
     id="base"
     pagecolor="#ffffff"
     bordercolor="#666666"
     borderopacity="1.0"
     inkscape:pageopacity="0.0"
     inkscape:pageshadow="2"
     inkscape:zoom="1.28"
     inkscape:cx="-140.21256"
     inkscape:cy="64.692153"
     inkscape:document-units="px"
     inkscape:current-layer="layer1"
     showgrid="false"
     inkscape:window-width="1440"
     inkscape:window-height="851"
     inkscape:window-x="0"
     inkscape:window-y="0"
     inkscape:window-maximized="1" />
  <metadata
     id="metadata7">
    <rdf:RDF>
      <cc:Work
         rdf:about="">
        <dc:format>image/svg+xml</dc:format>
        <dc:type
           rdf:resource="http://purl.org/dc/dcmitype/StillImage" />
        <dc:title />
      </cc:Work>
    </rdf:RDF>
  </metadata>
  <g
     inkscape:groupmode="layer"
     id="layer1"
     inkscape:label="sfondo"
     transform="translate(0,162.5)"
     style="display:inline">
    <path
       sodipodi:type="arc"
       style="fill:#ffffff;fill-opacity:1;fill-rule:evenodd;stroke:none;display:inline;opacity:0.3"
       id="path2995"
       sodipodi:cx="-168.49028"
       sodipodi:cy="-199.14465"
       sodipodi:rx="99.989319"
       sodipodi:ry="94.46505"
       d="m -68.500961,-199.14465 a 99.989319,94.46505 0 0 1 -99.989319,94.46505 99.989319,94.46505 0 0 1 -99.98932,-94.46505 99.989319,94.46505 0 0 1 99.98932,-94.46505 99.989319,94.46505 0 0 1 99.989319,94.46505 z"
       transform="matrix(1.0001068,0,0,1.0585926,268.50827,148.31305)"
       inkscape:export-filename="/Users/lucacorsato/Documents/osd/website/osdfront/assets/img/o{s}d_simple_200.png"
       inkscape:export-xdpi="320"
       inkscape:export-ydpi="320" />
  </g>
  <g
     inkscape:groupmode="layer"
     id="layer11"
     inkscape:label="logo"
     style="display:inline"
     transform="translate(0,-852.3622)">
    <path
       inkscape:connector-curvature="0"
       id="path4292"
       style="font-style:normal;font-variant:normal;font-weight:bold;font-stretch:normal;font-size:28px;line-height:125%;font-family:'Open Sans';-inkscape-font-specification:'Open Sans Bold';text-align:start;letter-spacing:0px;word-spacing:0px;writing-mode:lr-tb;text-anchor:start;display:inline;fill:#ea5480;fill-opacity:1;stroke:none"
       d="m 26.561575,952.30555 c -2.8e-5,4.16264 0.669047,7.30937 2.007324,9.44063 1.363034,2.13095 3.568776,3.19673 6.617144,3.19673 3.023567,0 5.192174,-1.05316 6.505737,-3.15906 1.338305,-2.13153 2.007478,-5.29073 2.007491,-9.4783 -1.3e-5,-4.16235 -0.669186,-7.28386 -2.007491,-9.36496 -1.338403,-2.08107 -3.531711,-3.12192 -6.579993,-3.12192 -3.023638,0 -5.20454,1.04085 -6.542888,3.12192 -1.338277,2.05602 -2.007352,5.17754 -2.007324,9.36496 m 28.736247,0 c -5.6e-5,6.84511 -1.784388,12.19847 -5.353178,16.05992 -3.568957,3.86159 -8.537776,5.79195 -14.907227,5.79195 -3.990017,0 -7.509392,-0.8772 -10.557703,-2.63247 -3.048351,-1.78063 -5.39027,-4.32527 -7.026258,-7.6352 -1.635624,-3.30966 -2.453464,-7.1711 -2.453464,-11.5842 0,-6.86992 1.771884,-12.21078 5.315987,-16.02222 3.544117,-3.81121 8.52565,-5.71691 14.944375,-5.71691 3.99027,0 7.509296,0.87752 10.557984,2.6328 3.048282,1.75532 5.390243,4.27508 7.026007,7.56001 1.635582,3.28467 2.453421,7.13335 2.453477,11.54632"
       inkscape:export-filename="/Users/lucacorsato/Documents/o{s}d/o{s}d_semplice.png"
       inkscape:export-xdpi="300"
       inkscape:export-ydpi="300" />
    <path
       d="m 161.84019,974.15757 c -4.88239,0 -8.7237,-1.91816 -11.52426,-5.75434 -2.77577,-3.83618 -4.16349,-9.15178 -4.16349,-15.9468 0,-6.89518 1.41243,-12.26097 4.23783,-16.097 2.85004,-3.86152 6.7657,-5.79226 11.74724,-5.79226 5.22917,0 9.21942,2.05611 11.97017,6.1681 l 0.37187,0 c -0.57004,-3.1341 -0.85497,-5.93001 -0.85492,-8.38696 l 0,-13.46477 11.37537,0 0,58.52207 -8.69896,0 -2.19336,-5.45344 -0.48305,0 c -2.57762,4.13694 -6.50564,6.2054 -11.78444,6.2054 m 3.97762,-9.13917 c 2.89959,0 5.01858,-0.85255 6.35693,-2.55722 1.36289,-1.70524 2.10637,-4.60146 2.23052,-8.68839 l 0,-1.24114 c -3e-5,-4.51306 -0.69393,-7.74744 -2.08191,-9.70357 -1.36307,-1.95545 -3.59353,-2.93365 -6.69131,-2.93365 -2.5281,0 -4.49821,1.09083 -5.91083,3.27238 -1.38789,2.15629 -2.08182,5.30299 -2.08181,9.43993 -3e-5,4.13736 0.70636,7.24636 2.11894,9.32759 1.41265,2.05614 3.43234,3.08407 6.05944,3.08407"
       style="font-style:normal;font-variant:normal;font-weight:bold;font-stretch:normal;font-size:28px;line-height:125%;font-family:'Open Sans';-inkscape-font-specification:'Open Sans Bold';text-align:start;letter-spacing:0px;word-spacing:0px;writing-mode:lr-tb;text-anchor:start;display:inline;fill:#002fa7;fill-opacity:1;stroke:none"
       id="path4296"
       inkscape:connector-curvature="0"
       inkscape:export-filename="/Users/lucacorsato/Documents/o{s}d/o{s}d_semplice.png"
       inkscape:export-xdpi="300"
       inkscape:export-ydpi="300" />
    <g
       id="g3785"
       transform="matrix(1.0090097,0,0,1.0090097,-0.73468356,-8.746587)">
      <path
         inkscape:export-ydpi="300"
         inkscape:export-xdpi="300"
         inkscape:export-filename="/Users/lucacorsato/Documents/o{s}d/o{s}d_semplice.png"
         d="m 90.606059,1015.7074 c -6.189514,-3e-4 -10.954632,-1.9137 -14.294854,-5.7406 -3.29147,-3.827 -4.937073,-9.2191 -4.937045,-16.17702 l 0,-21.99203 c -2.8e-5,-5.81472 -1.301817,-10.1638 -3.905173,-13.04637 -2.554619,-2.93215 -6.533523,-4.49762 -11.937309,-4.69643 l 0,-3.35461 c 10.561775,-0.19923 15.842454,-6.06337 15.842482,-17.59367 l 0,-21.91769 c -2.8e-5,-7.00752 1.596477,-12.39964 4.789472,-16.17703 3.193204,-3.77705 8.007115,-5.66575 14.442427,-5.66575 l 9.947711,0 0,3.50401 -4.568738,0 c -4.470333,0 -7.663245,1.36676 -9.579056,4.1 -1.866616,2.68396 -2.799944,6.65973 -2.799917,11.92791 l 0,24.60111 c -2.7e-5,4.72169 -1.277337,8.79704 -3.831803,12.22634 -2.554327,3.37946 -5.993092,5.54122 -10.316018,6.48584 l 0,0.22351 c 4.372052,1.04347 7.81079,3.25507 10.316018,6.63481 2.554466,3.32962 3.831776,7.40504 3.831803,12.22614 l 0,24.89933 c -2.7e-5,5.2681 0.933301,9.244 2.799917,11.9281 1.915811,2.733 5.108723,4.0998 9.579056,4.0998 l 4.568738,0 0,3.504 -9.947711,0"
         style="font-style:normal;font-variant:normal;font-weight:normal;font-stretch:normal;font-size:56px;line-height:125%;font-family:'Liberation Serif';-inkscape-font-specification:'Liberation Serif';text-align:start;letter-spacing:0px;word-spacing:0px;writing-mode:lr-tb;text-anchor:start;display:inline;fill:#ea5480;fill-opacity:1;stroke:none"
         id="path4298"
         inkscape:connector-curvature="0" />
      <path
         inkscape:export-ydpi="300"
         inkscape:export-xdpi="300"
         inkscape:export-filename="/Users/lucacorsato/Documents/o{s}d/o{s}d_semplice.png"
         d="m 100.55377,1015.7074 0,-3.5043 4.5684,0 c 4.47024,0 7.63862,-1.3668 9.50547,-4.0998 1.91567,-2.6841 2.87378,-6.66 2.87381,-11.9281 l 0,-24.89933 c -3e-5,-4.82096 1.25239,-8.89624 3.75791,-12.22614 2.50518,-3.37974 5.96842,-5.59134 10.38961,-6.63481 l 0,-0.22351 c -4.32291,-0.94434 -7.76172,-3.13123 -10.31595,-6.56025 -2.55461,-3.42945 -3.8316,-7.47974 -3.83157,-12.15188 l 0,-24.6011 c -3e-5,-5.26818 -0.95814,-9.24395 -2.87381,-11.92792 -1.86685,-2.73323 -5.03523,-4.1 -9.50547,-4.1 l -4.5684,0 0,-3.50401 10.02108,0 c 6.38609,3e-4 11.17585,1.889 14.36881,5.66604 3.19285,3.7771 4.7893,9.16949 4.78936,16.17674 l 0,21.9177 c -6e-5,11.53024 5.28104,17.39467 15.84251,17.59361 l 0,3.35461 c -5.30534,0.19909 -9.28449,1.73929 -11.93692,4.62201 -2.60375,2.88272 -3.90565,7.25622 -3.90559,13.12079 l 0,21.99203 c -6e-5,6.90832 -1.67015,12.27582 -5.01038,16.10252 -3.29142,3.8766 -8.00717,5.8151 -14.14779,5.8151 l -10.02108,0"
         style="font-style:normal;font-variant:normal;font-weight:normal;font-stretch:normal;font-size:56px;line-height:125%;font-family:'Liberation Serif';-inkscape-font-specification:'Liberation Serif';text-align:start;letter-spacing:0px;word-spacing:0px;writing-mode:lr-tb;text-anchor:start;display:inline;fill:#002fa7;fill-opacity:1;stroke:none"
         id="path4300"
         inkscape:connector-curvature="0" />
    </g>
    <g
       style="font-style:normal;font-variant:normal;font-weight:bold;font-stretch:normal;font-size:71.3184433px;line-height:125%;font-family:'Open Sans';-inkscape-font-specification:'Open Sans Bold';text-align:start;letter-spacing:0px;word-spacing:0px;writing-mode:lr-tb;text-anchor:start;fill:#1a1a1a;fill-opacity:1;stroke:none"
       id="text3777">
      <path
         d="m 115.49002,960.2845 q 0,5.98963 -4.17881,9.12374 -4.14399,3.13412 -12.431975,3.13412 -4.248462,0 -7.243279,-0.592 -2.994818,-0.55718 -5.606577,-1.67153 l 0,-8.77551 q 2.959994,1.39294 6.651281,2.33317 3.72611,0.94023 6.54681,0.94023 5.78069,0 5.78069,-3.34305 0,-1.25364 -0.76611,-2.01976 -0.76612,-0.80094 -2.64659,-1.77599 -1.880462,-1.00989 -5.014573,-2.33318 -4.492226,-1.88046 -6.616457,-3.48234 -2.089408,-1.60188 -3.064465,-3.65647 -0.940233,-2.0894 -0.940233,-5.11904 0,-5.1887 4.004698,-8.0094 4.039521,-2.85552 11.42209,-2.85552 7.03434,0 13.68562,3.06446 l -3.20375,7.66116 q -2.92518,-1.25364 -5.46729,-2.05458 -2.54211,-0.80094 -5.18869,-0.80094 -4.70117,0 -4.70117,2.54211 0,1.42776 1.497409,2.47247 1.532232,1.0447 6.651281,3.09928 4.56187,1.84565 6.6861,3.44753 2.12423,1.60188 3.13411,3.69128 1.00988,2.08941 1.00988,4.97976 z"
         style=""
         id="path4155" />
    </g>
  </g>
</svg>
